<?xml version="1.0" encoding="utf-8"?>
<!-- Generator: Adobe Illustrator 27.4.0, SVG Export Plug-In . SVG Version: 6.00 Build 0)  -->
<svg version="1.1" id="Layer_1" xmlns="http://www.w3.org/2000/svg" xmlns:xlink="http://www.w3.org/1999/xlink" x="0px" y="0px"
	 viewBox="0 0 324 324" style="enable-background:new 0 0 324 324;" xml:space="preserve">
<style type="text/css">
	.st0{fill:#021744;}
	.st1{clip-path:url(#SVGID_00000080898175184792970990000008730690029294374529_);fill:#7C5396;}
	.st2{clip-path:url(#SVGID_00000147898309253157639510000011365408121306980514_);}
	.st3{fill:#D3BCDD;}
	.st4{fill:#66377C;}
	.st5{fill:#501B66;}
	.st6{fill:#BB8DCC;}
	.st7{fill:#FFFFFF;}
	.st8{fill:#52DB8F;}
	.st9{fill:none;stroke:#135113;stroke-width:6;stroke-linejoin:round;stroke-miterlimit:10;}
	.st10{fill:none;stroke:#FFFFFF;stroke-width:6;stroke-linejoin:round;stroke-miterlimit:10;}
	.st11{fill:none;stroke:#FFFFFF;stroke-width:5;stroke-linejoin:round;stroke-miterlimit:10;}
	.st12{fill:#031C63;}
	.st13{fill:#3673B6;}
	.st14{fill:#80C9F9;}
	.st15{fill:none;stroke:#80C9F9;stroke-width:14;stroke-miterlimit:10;}
	.st16{fill:none;stroke:#80C9F9;stroke-width:11;stroke-miterlimit:10;}
	.st17{fill:none;stroke:#80C9F9;stroke-width:10;stroke-miterlimit:10;}
	.st18{fill:none;stroke:#3673B6;stroke-width:10;stroke-miterlimit:10;}
	.st19{fill:none;stroke:#3673B6;stroke-width:14;stroke-miterlimit:10;}
	.st20{fill:none;stroke:#3673B6;stroke-width:11;stroke-miterlimit:10;}
</style>
<g>
	<g>
		<defs>
			<path id="SVGID_1_" d="M-156.26,301.21h-155.48c-33.81,0-61.47-27.66-61.47-61.47V84.26c0-33.81,27.66-61.47,61.47-61.47h155.48
				c33.81,0,61.47,27.66,61.47,61.47v155.48C-94.79,273.55-122.45,301.21-156.26,301.21z"/>
		</defs>
		<clipPath id="SVGID_00000088125853204803481970000003162338132143285129_">
			<use xlink:href="#SVGID_1_"  style="overflow:visible;"/>
		</clipPath>
		<path style="clip-path:url(#SVGID_00000088125853204803481970000003162338132143285129_);fill:#7C5396;" d="M317.02,32.27
			c-1.93-3.14-4.67-5.7-8.06-7.35c-4.72-2.31-10.06-2.65-15.03-0.95c-2.34,0.8-4.44,2.04-6.28,3.58L107.67-99.89
			c1.62-4.27,1.79-8.9,0.29-13.28c-0.51-1.48-1.22-2.83-2.03-4.12l26.61-28.48l-7.25-6.77l-26.61,28.48
			c-0.23-0.13-0.43-0.3-0.67-0.42c-4.72-2.31-10.06-2.65-15.03-0.95c-4.61,1.58-8.33,4.78-10.7,8.99l-166.35-43.83
			c0-2.15-0.27-4.31-0.99-6.41c-1.68-4.91-5.16-8.87-9.79-11.2l27.59-128.91l0.51-0.08l-0.21-1.34l1.24-5.77l-2.2-0.47l-0.34-2.21
			l-5.84,0.9l-1.32-0.28l-0.11,0.5l-182.24,28.06c-1.8-4.15-4.94-7.75-9.31-9.89c-5.17-2.53-10.9-2.52-15.87-0.56l-69.38-94.71
			l-8,5.87l69.35,94.68c-0.93,1.14-1.77,2.37-2.44,3.74c-2.31,4.72-2.65,10.06-0.95,15.03c1.46,4.26,4.33,7.75,8.07,10.13
			l-46.25,142.91c-2.52-0.15-5.06,0.19-7.52,1.03c-2.67,0.91-5.03,2.39-7.03,4.26l-103.65-65.64l0.1-0.71l-1.59-0.23l-4.57-2.89
			l-1.28,2.04l-2.37-0.35l-0.78,5.35l-0.85,1.35l0.6,0.38l-29.92,204.8c-1.42,0.16-2.83,0.44-4.22,0.91
			c-3.36,1.15-6.23,3.19-8.48,5.82l-64.25-31.49l-4.37,8.91l64.26,31.49c-1.5,7.44,1.4,15.17,7.58,19.72l-137.83,346.18
			c-2.99-0.37-5.99-0.12-8.77,0.84l-67.21-101.58l-8.27,5.48l54.23,81.96l-61.9-58.15l-6.78,7.24l79.07,74.29
			c-0.14,0.25-0.32,0.46-0.45,0.72c-4.78,9.74-0.73,21.56,9.01,26.33l0,0c2.75,1.34,5.65,1.96,8.52,1.98l40.83,161.31
			c-3.43,1.88-6.35,4.77-8.2,8.55c-4.78,9.74-0.73,21.56,9.01,26.33l0,0c7.67,3.76,16.63,2.05,22.42-3.6
			c1.54-1.5,2.84-3.28,3.85-5.31l177.46,37.22c0.09,1.82,0.35,3.64,0.95,5.41c1.7,4.97,5.24,8.99,9.96,11.3
			c1.5,0.73,3.05,1.2,4.62,1.53l14.81,309.17c-4.98,1.56-9.35,5.04-11.81,10.07c-4.78,9.74-0.73,21.56,9.01,26.34l0,0
			 M-87.76-305.16l-26.82,125.3c-4.37,0.21-8.59,1.78-11.93,4.64l-140.85-97.74c0.57-1.55,0.96-3.12,1.12-4.71L-87.76-305.16z
			 M318.13,178.41c-1.91-3.89-4.96-7.07-8.92-9.01c-1.21-0.59-2.46-1.05-3.73-1.38l-0.19-106.46c3.26-0.86,6.31-2.5,8.77-4.9
			c0.69-0.67,1.31-1.42,1.9-2.2 M-95-64.97c-3.54,1.93-6.42,4.86-8.24,8.55l-101.13-20.72l79.39-67.12
			c0.84,0.59,1.68,1.17,2.62,1.63l0,0c2.72,1.33,5.61,1.95,8.46,1.97L-95-64.97z M335.83,778.09c-3.45-1.32-7.05-1.64-10.5-1.01
			L236.99,586.6c0.42-0.35,0.84-0.7,1.24-1.08c1.06-1.03,1.95-2.22,2.75-3.48 M-131.71,194.39c4.05,1.47,8.4,1.61,12.55,0.3
			L0.67,385.39c-1.32,1.41-2.51,2.97-3.39,4.75c-0.99,2.03-1.54,4.17-1.8,6.35l-286.2,39.56c-0.8-1.93-1.84-3.77-3.23-5.38
			L-131.71,194.39z M-249.08-21.61c2.62-0.97,4.97-2.44,6.92-4.34c1.59-1.55,2.92-3.39,3.93-5.44c0.72-1.47,1.18-3.01,1.51-4.57
			l132.38-5.96c0.06,0.19,0.07,0.38,0.13,0.56c0.38,1.11,0.88,2.15,1.44,3.16L-231.55,84.54c-0.55-0.34-1.05-0.72-1.64-1.01
			c-1.79-0.88-3.69-1.38-5.6-1.68L-249.08-21.61z M-124.37,156.33c-5.16-0.18-10.21,1.7-14.03,5.21l-84.8-54.29
			c1.32-4.03,1.37-8.34-0.03-12.43c-0.38-1.11-0.88-2.15-1.44-3.16L-95.88-31.07c0.55,0.34,1.05,0.73,1.64,1.01
			c0.22,0.11,0.45,0.15,0.67,0.25L-124.37,156.33z M82.19,159.19c1.47,3.83,4.05,7.01,7.42,9.26L16.51,379.2
			c-2.49-0.2-5.01,0.1-7.46,0.87l-119.81-190.66c1.33-1.41,2.49-3,3.36-4.79c0.7-1.43,1.16-2.92,1.49-4.43L82.19,159.19z
			 M21.33,417.43c1.87-0.64,3.6-1.57,5.16-2.69l180.16,148.42c-0.97,2.08-1.54,4.28-1.74,6.51l-282.96,47.36
			c-1.19-2.65-2.9-4.97-5.07-6.83l94.17-192.17C14.45,418.72,17.97,418.58,21.33,417.43z M-76.35,626.8l282.96-47.37
			c1.08,2.41,2.59,4.53,4.49,6.3l-88.79,164.08c-6.28-1.51-12.86,0.18-17.61,4.36L-77.42,631.52
			C-76.88,629.98-76.49,628.41-76.35,626.8z M213.01,555.54L32.78,407.06c0.09-0.19,0.13-0.38,0.21-0.57l168.98,25.03
			c0.16,1.43,0.43,2.86,0.91,4.25c1.7,4.97,5.24,8.99,9.96,11.3c1.33,0.65,2.71,1.08,4.1,1.41l2.18,104.07
			C216.93,553.18,214.88,554.19,213.01,555.54z M203.84,420.74c-0.15,0.32-0.23,0.65-0.36,0.97L34.49,396.69
			c-0.16-1.43-0.43-2.86-0.91-4.25c-1.41-4.13-4.15-7.54-7.72-9.92l73.1-210.76c1.53,0.12,3.08,0.05,4.61-0.2L209.38,414
			C207.12,415.77,205.18,418,203.84,420.74z M-289.35,445.88l286.21-39.57c1.19,2.87,2.99,5.36,5.3,7.35l-94.18,192.17
			c-3.39-0.69-6.91-0.55-10.27,0.6c-1.76,0.6-3.35,1.51-4.84,2.55l-183.98-156.84C-290.13,450.12-289.6,448-289.35,445.88z
			 M234,554.28c-0.3-0.17-0.55-0.38-0.86-0.54c-1.33-0.65-2.71-1.11-4.1-1.44l-2.18-104.02c3.12-0.89,6.04-2.5,8.41-4.81
			c1.56-1.52,2.9-3.34,3.91-5.41c1.98-4.03,2.37-8.4,1.55-12.49 M236.46,416.62c-1.22-1.43-2.72-2.64-4.36-3.69l67.28-206.26
			c5.3,0.31,10.53-1.53,14.45-5.11 M-246.87,120.19c6.55,1.73,13.48-0.06,18.36-4.56l84.79,54.29c-1.29,3.96-1.35,8.19-0.02,12.21
			l-217.2,140.23L-246.87,120.19z M289.96,203.55L222.7,409.76c-1.43-0.08-2.85,0.01-4.24,0.24L112.68,167.63
			c0.55-0.43,1.08-0.89,1.58-1.38c1.59-1.55,2.92-3.39,3.93-5.44c0.08-0.16,0.11-0.34,0.19-0.51l162.64,28.39
			C281.52,194.65,284.71,200.17,289.96,203.55z M82.84,143.49c-0.91,1.87-1.43,3.84-1.72,5.84l-187.41,20.93
			c-0.07-0.22-0.08-0.45-0.16-0.67c-1.5-4.37-4.47-7.92-8.35-10.31l31.01-187.47c1.54-0.14,3.08-0.41,4.58-0.92
			c1.04-0.35,2.01-0.81,2.96-1.32l160.22,172.1C83.59,142.27,83.16,142.83,82.84,143.49z M-237.15-45.87
			c-0.06-0.19-0.07-0.38-0.13-0.56c-0.25-0.73-0.62-1.39-0.95-2.08l24.22-20.48l88.32,18.09L-237.15-45.87z M-244.61-56.1
			c-0.84-0.59-1.69-1.17-2.63-1.63c-1.94-0.95-4-1.49-6.08-1.76l-2.24-18l29.19,5.98L-244.61-56.1z M-265.83-79.6l2.66,21.33
			c-2.06,0.82-3.95,1.91-5.59,3.32l-52.07-35.92L-265.83-79.6z M-258.45-15.55l9.78,98.33c-4.75,1.76-8.61,5.18-10.85,9.75
			l-31.07-6.34L-258.45-15.55z M-261.41,102.27c0.28,4.89,2.36,9.53,5.93,13l-100.62,178.3l62.5-197.87L-261.41,102.27z
			 M-360.87,350.9c1.33-1.41,2.5-2.99,3.4-4.82c2.28-4.65,2.62-9.9,1-14.82l213.31-137.72l-159.02,231.58
			c-4.03-1.46-8.36-1.61-12.5-0.31L-360.87,350.9z M-302.44,462.19c1.77-0.6,3.4-1.47,4.89-2.51l183.93,156.79
			c-1.05,2.17-1.65,4.47-1.86,6.8l-252.97,42.02c-1.49-3.35-3.91-6.26-7.12-8.38l65.37-193.72
			C-307.61,463.38-304.98,463.05-302.44,462.19z M-366.78,675.07l252.98-42.02c0.25,0.57,0.47,1.16,0.77,1.7l-125.4,121.72
			l-129.07-77.64C-367.13,677.58-366.89,676.33-366.78,675.07z M348.04,800.27c0.56-2.78,0.49-5.58-0.13-8.26 M344.98,782.35
			 M244.11,572.62c0.24-4.06-0.82-8.08-2.93-11.51 M319.17,193.2c0.55-1.66,0.93-3.36,1.02-5.08 M-272.01-28.91
			c1.47,2.14,3.38,3.98,5.67,5.42L-300.36,84.2l-179.34-36.61c-0.01-0.26,0-0.52-0.03-0.78L-272.01-28.91z M285.44,174.54
			c-0.98,1.18-1.87,2.45-2.56,3.87c-0.08,0.17-0.11,0.34-0.19,0.51l-162.64-28.4c-0.57-6.67-4.44-12.9-10.88-16.05
			c-1.47-0.72-2.99-1.18-4.52-1.51l-9.54-221c0.2-0.06,0.4-0.07,0.6-0.14c0.24-0.08,0.46-0.19,0.7-0.28L285.44,174.54z M80.68-89.13
			c1.46,0.71,2.98,1.17,4.53,1.51l9.54,221.01c-1.22,0.38-2.41,0.87-3.54,1.48L-69.01-37.22c0.38-0.61,0.79-1.2,1.11-1.85
			c1.55-3.17,2.13-6.61,1.89-10.03L72.95-96.02C74.86-93.11,77.46-90.7,80.68-89.13z M-133.52-150.03l-83.22,70.36l-40.12-8.22
			l-3.64-29.19L-133.52-150.03z M-267.12-89.99l-54.64-11.2l51.58-13.38L-267.12-89.99z M-133.3-160.33l-128.44,33.33l-16.75-134.45
			c1.99-0.79,3.85-1.91,5.5-3.32l140.89,97.76C-132.89-164.82-133.3-162.58-133.3-160.33z M-352.37-82.94L-352.37-82.94
			c7.28,3.57,15.69,2.17,21.48-2.81l56.57,39.03c-1.01,2.8-1.39,5.69-1.12,8.51l-203.41,74.15l124.9-119.85
			C-353.41-83.6-352.93-83.22-352.37-82.94z M-485.5,62.72c1.56-1.52,2.89-3.34,3.91-5.41l178.23,36.39l-70.78,224.07
			c-1.04-0.05-2.08,0.02-3.11,0.13L-487.17,64.12C-486.6,63.67-486.02,63.23-485.5,62.72z M-383.81,355.09
			c1,0.49,2.03,0.88,3.07,1.19l-2.64,79.39l-240.58-9.46l232.4-78.05C-389.64,351.09-387.03,353.51-383.81,355.09z M-370.82,356.56
			c0.52-0.12,1.04-0.22,1.55-0.38l46.21,73.95c-1.34,1.42-2.53,2.98-3.42,4.78c-0.47,0.97-0.79,1.96-1.1,2.96l-45.89-1.8
			L-370.82,356.56z M-327.94,447.78c0.13,0.59,0.24,1.18,0.42,1.75l-47.39,29.96l1.12-33.51L-327.94,447.78z M-322.18,457.88
			c0.8,0.75,1.67,1.43,2.61,2.05l-60.68,179.83l4.94-148.29L-322.18,457.88z M291.64,60.26L291.64,60.26
			c1.22,0.6,2.47,1.01,3.74,1.33l0.19,106.52c-0.46,0.12-0.93,0.17-1.38,0.33c-0.24,0.08-0.45,0.22-0.68,0.31L110.67-85.61
			L281.98,35.7C278.45,45.07,282.47,55.77,291.64,60.26z M69.78-105.42L-69.18-58.5c-1.91-2.92-4.52-5.33-7.73-6.9
			c-2.68-1.31-5.56-1.92-8.45-1.95l-18.91-75.71c1.57-0.85,3.05-1.89,4.34-3.16c1.3-1.27,2.4-2.79,3.33-4.44l166.33,43.83
			C69.73-106.36,69.75-105.9,69.78-105.42z M-271.42-124.5l-55.12,14.3c-1.58-2.84-3.85-5.17-6.61-6.93l45.24-139.78L-271.42-124.5z
			 M-582.26,622.31l196.81-124.42l-5.2,156.31c-5.57,1.27-10.56,4.85-13.28,10.34l-177.47-37.23
			C-581.5,625.6-581.75,623.92-582.26,622.31z M319.72,45.28c0.16-1.17,0.21-2.33,0.16-3.51 M-360.86-91.03L-489.02,31.95
			c-0.53-0.32-1.01-0.7-1.58-0.97c-0.33-0.16-0.68-0.24-1.01-0.38l29.28-200.48l99.95,63.3
			C-364.06-101.29-363.45-95.68-360.86-91.03z M-496.25,68.08l109.74,253.39c-2.59,1.84-4.82,4.25-6.31,7.29
			c-1.55,3.16-2.13,6.59-1.89,10l-240.03,80.61c-1.26-1.93-2.83-3.67-4.76-5.08l137.8-346.12
			C-499.87,68.39-498.04,68.36-496.25,68.08z M-637.37,444.17c1.56-1.52,2.9-3.34,3.91-5.41c0.47-0.97,0.79-1.96,1.1-2.96
			l248.65,9.78l-1.34,40.31L-587.6,613.95c-1.39-1.3-2.91-2.48-4.71-3.36c-2.74-1.34-5.64-1.92-8.51-1.93l-40.85-161.36
			C-640.11,446.45-638.66,445.43-637.37,444.17z"/>
	</g>
	<g>
		<defs>
			<path id="SVGID_00000132076710815074025150000000797459193582132128_" d="M-353.05,167.92c1.82-5.33,5.59-9.62,10.64-12.1
				c10.43-5.12,23.08-0.81,28.2,9.62c0.52,1.05,0.95,2.18,1.3,3.35l29.89,1.09c1.19-9.19,5.7-17.75,12.85-23.93l-18.78-27.78
				c-0.15,0.05-0.29,0.1-0.44,0.14c-5.4,1.53-11.08,0.87-15.98-1.87c-4.54-2.54-7.92-6.57-9.61-11.44
				c-0.13-0.39-0.26-0.78-0.37-1.18c-3.16-11.15,3.34-22.79,14.49-25.95c11.15-3.16,22.82,3.34,25.95,14.49
				c1.94,6.84,0.32,14.06-4.32,19.45l18.9,27.97c5.22-2.27,11.02-3.4,17.07-3.08c10.15,0.52,19.48,4.96,26.29,12.5
				c3.65,4.04,6.32,8.72,7.95,13.75l30.15-4.33c1.08-5.54,4.2-10.29,8.85-13.42c4.66-3.14,10.26-4.28,15.79-3.21
				c5.52,1.08,10.3,4.24,13.45,8.9c3.14,4.66,4.29,10.27,3.21,15.79c-1.07,5.52-4.23,10.3-8.88,13.44
				c-9.63,6.5-22.75,3.95-29.25-5.67c-0.66-0.97-1.24-2.03-1.74-3.14l-29.74,3.01c0.01,0.77,0,1.54-0.04,2.31
				c-0.6,11.67-6.57,22.39-16.07,29.11c-0.26,0.18-0.51,0.36-0.78,0.54c-0.15,0.1-0.3,0.21-0.45,0.31l14.8,30.08
				c0.15-0.03,0.3-0.06,0.46-0.08c5.56-0.78,11.09,0.65,15.57,4.04c4.15,3.13,6.94,7.59,7.95,12.65c0.08,0.4,0.15,0.81,0.21,1.22
				c1.61,11.48-6.42,22.12-17.9,23.73c-11.48,1.61-22.15-6.43-23.73-17.9c-0.99-7.04,1.6-13.97,6.94-18.67l-14.89-30.28
				c-2.24,0.62-4.56,1.05-6.95,1.26c-10.12,0.87-19.98-2.25-27.75-8.79c-6.89-5.8-11.41-13.68-12.95-22.44l-30.48,0.17
				c-1.82,5.34-5.57,9.62-10.6,12.09c-5.04,2.48-10.75,2.84-16.08,1.02c-5.33-1.82-9.62-5.6-12.1-10.65
				C-354.5,178.96-354.87,173.25-353.05,167.92z"/>
		</defs>
		<clipPath id="SVGID_00000136393003077348336520000004317892098805266050_">
			<use xlink:href="#SVGID_00000132076710815074025150000000797459193582132128_"  style="overflow:visible;"/>
		</clipPath>
		<g style="clip-path:url(#SVGID_00000136393003077348336520000004317892098805266050_);">
			<polygon class="st3" points="44.97,189.28 78.15,162.1 94.69,186.16 			"/>
			<polygon class="st4" points="33.82,185.19 30.85,93.32 72.33,153.64 			"/>
			<polygon class="st5" points="80.31,147.1 33.52,79.06 249.99,8.11 			"/>
			<polygon class="st4" points="176.7,305.42 43.27,200.03 101.71,196.36 			"/>
			<polygon class="st3" points="-29.86,445.24 32.01,204.51 190.84,329.95 			"/>
			<polygon class="st3" points="-231.48,84.4 -187.71,-25.78 5.19,71.96 			"/>
			<polygon class="st6" points="20.56,82.47 23.97,187.83 -214.34,94.14 20.45,81.79 			"/>
			<polygon class="st6" points="21.44,205.86 -40.58,447.16 -221.03,341.21 			"/>
			<polygon class="st3" points="16.94,196.49 -237,336.58 -236.89,97.87 			"/>
			<path class="st7" d="M113.66,195.61l205.38-12.9c0.39,1.28,0.91,2.51,1.54,3.68L200.94,322.54L113.66,195.61z"/>
			<path class="st6" d="M318.75,172.09l-212.1,13.31l-20.52-29.84L272.27,3.08l53.37,157.87c-2.03,1.62-3.8,3.68-5.12,6.19
				C319.67,168.73,319.14,170.4,318.75,172.09z"/>
			<path class="st7" d="M-147.79-73.12l112.56-126.76c1.71,0.94,3.49,1.59,5.31,1.89c0.52,0.09,1.04,0.09,1.56,0.13L17.11,62.67
				L-147.79-73.12z"/>
			<path class="st4" d="M-18.62-200.1c1.23-0.7,2.4-1.54,3.47-2.54L263.08-7.23L28.46,69.67L-18.62-200.1z"/>
		</g>
	</g>
</g>
<g>
	<path class="st12" d="M239.74,301.21H84.26c-33.81,0-61.47-27.66-61.47-61.47V84.26c0-33.81,27.66-61.47,61.47-61.47h155.48
		c33.81,0,61.47,27.66,61.47,61.47v155.48C301.21,273.55,273.55,301.21,239.74,301.21z"/>
	<g>
		<g>
			<path class="st13" d="M190.56,134.72c4.95,5.84,7.94,13.38,7.94,21.63c0,18.49-14.99,33.48-33.48,33.48
				c-5.86,0-11.37-1.51-16.16-4.16c6.14,7.25,15.3,11.85,25.55,11.85c18.49,0,33.48-14.99,33.48-33.48
				C207.88,151.41,200.88,140.42,190.56,134.72z"/>
			<path class="st13" d="M174.4,130.56c5.86,0,11.37,1.51,16.16,4.16c-6.14-7.25-15.3-11.85-25.55-11.85
				c-18.49,0-33.48,14.99-33.48,33.48c0,12.63,6.99,23.62,17.32,29.32c-4.95-5.84-7.93-13.38-7.93-21.63
				C140.91,145.55,155.9,130.56,174.4,130.56z"/>
		</g>
		<g>
			<path class="st13" d="M190.56,134.72c4.95,5.84,7.94,13.38,7.94,21.63c0,18.49-14.99,33.48-33.48,33.48
				c-5.86,0-11.37-1.51-16.16-4.16c6.14,7.25,15.3,11.85,25.55,11.85c18.49,0,33.48-14.99,33.48-33.48
				C207.88,151.41,200.88,140.42,190.56,134.72z"/>
			<path class="st14" d="M174.4,130.56c5.86,0,11.37,1.51,16.16,4.16c-6.14-7.25-15.3-11.85-25.55-11.85
				c-18.49,0-33.48,14.99-33.48,33.48c0,12.63,6.99,23.62,17.32,29.32c-4.95-5.84-7.93-13.38-7.93-21.63
				C140.91,145.55,155.9,130.56,174.4,130.56z"/>
		</g>
	</g>
	<circle class="st14" cx="181.24" cy="80.43" r="18.66"/>
	<circle class="st13" cx="157.95" cy="239.97" r="18.66"/>
	<circle class="st14" cx="105.19" cy="96.47" r="24.7"/>
	<circle class="st13" cx="234.48" cy="224.07" r="24.7"/>
	<circle class="st14" cx="86.41" cy="173.82" r="18.78"/>
	<circle class="st13" cx="252.81" cy="146.29" r="18.78"/>
	<line class="st15" x1="105.19" y1="96.47" x2="165.01" y2="156.35"/>
	<line class="st16" x1="181.24" y1="80.43" x2="165.01" y2="156.35"/>
	<line class="st17" x1="86.41" y1="173.82" x2="165.01" y2="156.35"/>
	<line class="st18" x1="252.81" y1="146.29" x2="174.4" y2="164.04"/>
	<line class="st19" x1="234.48" y1="224.07" x2="174.4" y2="164.04"/>
	<line class="st20" x1="156.98" y1="239.97" x2="174.4" y2="164.04"/>
	<path class="st7" d="M198.49,156.35c0-8.25-2.99-15.8-7.94-21.63c-4.79-2.65-10.3-4.16-16.16-4.16
		c-18.49,0-33.48,14.99-33.48,33.48c0,8.25,2.99,15.8,7.93,21.63c4.79,2.65,10.3,4.16,16.16,4.16
		C183.5,189.83,198.49,174.84,198.49,156.35z"/>
</g>
</svg>
