<svg width="1805" height="733" xmlns="http://www.w3.org/2000/svg" xmlns:xlink="http://www.w3.org/1999/xlink" xml:space="preserve" overflow="hidden"><defs><clipPath id="clip0"><rect x="770" y="715" width="1805" height="733"/></clipPath><clipPath id="clip1"><rect x="770" y="715" width="1805" height="733"/></clipPath><clipPath id="clip2"><rect x="774" y="837" width="600" height="600"/></clipPath><clipPath id="clip3"><rect x="774" y="837" width="600" height="600"/></clipPath><clipPath id="clip4"><rect x="774" y="837" width="600" height="600"/></clipPath></defs><g clip-path="url(#clip0)" transform="translate(-770 -715)"><g clip-path="url(#clip1)"><g clip-path="url(#clip2)"><g clip-path="url(#clip3)"><g clip-path="url(#clip4)"><path d="M1217.96 1394.8 930.037 1394.8C867.426 1394.8 816.204 1343.57 816.204 1280.96L816.204 993.037C816.204 930.426 867.426 879.204 930.037 879.204L1217.96 879.204C1280.57 879.204 1331.8 930.426 1331.8 993.037L1331.8 1280.96C1331.8 1343.57 1280.57 1394.8 1217.96 1394.8Z" fill="#031C63" fill-rule="nonzero" fill-opacity="1"/><path d="M1126.89 1086.48C1136.06 1097.3 1141.59 1111.26 1141.59 1126.54 1141.59 1160.78 1113.83 1188.54 1079.59 1188.54 1068.74 1188.54 1058.54 1185.74 1049.67 1180.83 1061.04 1194.26 1078 1202.78 1096.98 1202.78 1131.22 1202.78 1158.98 1175.02 1158.98 1140.78 1158.96 1117.39 1146 1097.04 1126.89 1086.48Z" fill="#3673B6" fill-rule="nonzero" fill-opacity="1"/><path d="M1096.96 1078.78C1107.81 1078.78 1118.02 1081.57 1126.89 1086.48 1115.52 1073.06 1098.56 1064.54 1079.57 1064.54 1045.33 1064.54 1017.57 1092.3 1017.57 1126.54 1017.57 1149.93 1030.52 1170.28 1049.65 1180.83 1040.48 1170.02 1034.96 1156.06 1034.96 1140.78 1034.94 1106.54 1062.7 1078.78 1096.96 1078.78Z" fill="#3673B6" fill-rule="nonzero" fill-opacity="1"/><path d="M1126.89 1086.48C1136.06 1097.3 1141.59 1111.26 1141.59 1126.54 1141.59 1160.78 1113.83 1188.54 1079.59 1188.54 1068.74 1188.54 1058.54 1185.74 1049.67 1180.83 1061.04 1194.26 1078 1202.78 1096.98 1202.78 1131.22 1202.78 1158.98 1175.02 1158.98 1140.78 1158.96 1117.39 1146 1097.04 1126.89 1086.48Z" fill="#3673B6" fill-rule="nonzero" fill-opacity="1"/><path d="M1096.96 1078.78C1107.81 1078.78 1118.02 1081.57 1126.89 1086.48 1115.52 1073.06 1098.56 1064.54 1079.57 1064.54 1045.33 1064.54 1017.57 1092.3 1017.57 1126.54 1017.57 1149.93 1030.52 1170.28 1049.65 1180.83 1040.48 1170.02 1034.96 1156.06 1034.96 1140.78 1034.94 1106.54 1062.7 1078.78 1096.96 1078.78Z" fill="#80C9F9" fill-rule="nonzero" fill-opacity="1"/><path d="M1144.19 985.944C1144.19 1005.03 1128.71 1020.5 1109.63 1020.5 1090.55 1020.5 1075.07 1005.03 1075.07 985.944 1075.07 966.86 1090.55 951.389 1109.63 951.389 1128.71 951.389 1144.19 966.86 1144.19 985.944Z" fill="#80C9F9" fill-rule="nonzero" fill-opacity="1"/><path d="M1101.06 1281.39C1101.06 1300.47 1085.58 1315.94 1066.5 1315.94 1047.42 1315.94 1031.94 1300.47 1031.94 1281.39 1031.94 1262.3 1047.42 1246.83 1066.5 1246.83 1085.58 1246.83 1101.06 1262.3 1101.06 1281.39Z" fill="#3673B6" fill-rule="nonzero" fill-opacity="1"/><path d="M1014.54 1015.65C1014.54 1040.91 994.058 1061.39 968.796 1061.39 943.534 1061.39 923.056 1040.91 923.056 1015.65 923.056 990.386 943.534 969.907 968.796 969.907 994.058 969.907 1014.54 990.386 1014.54 1015.65Z" fill="#80C9F9" fill-rule="nonzero" fill-opacity="1"/><path d="M1253.96 1251.94C1253.96 1277.21 1233.48 1297.69 1208.22 1297.69 1182.96 1297.69 1162.48 1277.21 1162.48 1251.94 1162.48 1226.68 1182.96 1206.2 1208.22 1206.2 1233.48 1206.2 1253.96 1226.68 1253.96 1251.94Z" fill="#3673B6" fill-rule="nonzero" fill-opacity="1"/><path d="M968.796 1158.89C968.796 1178.1 953.226 1193.67 934.019 1193.67 914.811 1193.67 899.241 1178.1 899.241 1158.89 899.241 1139.68 914.811 1124.11 934.019 1124.11 953.226 1124.11 968.796 1139.68 968.796 1158.89Z" fill="#80C9F9" fill-rule="nonzero" fill-opacity="1"/><path d="M1276.94 1107.91C1276.94 1127.11 1261.37 1142.69 1242.17 1142.69 1222.96 1142.69 1207.39 1127.11 1207.39 1107.91 1207.39 1088.7 1222.96 1073.13 1242.17 1073.13 1261.37 1073.13 1276.94 1088.7 1276.94 1107.91Z" fill="#3673B6" fill-rule="nonzero" fill-opacity="1"/><path d="M968.796 1015.65 1079.57 1126.54" stroke="#80C9F9" stroke-width="25.9259" stroke-linecap="butt" stroke-linejoin="miter" stroke-miterlimit="10" stroke-opacity="1" fill="none" fill-rule="nonzero"/><path d="M1109.63 985.944 1079.57 1126.54" stroke="#80C9F9" stroke-width="20.3704" stroke-linecap="butt" stroke-linejoin="miter" stroke-miterlimit="10" stroke-opacity="1" fill="none" fill-rule="nonzero"/><path d="M934.019 1158.89 1079.57 1126.54" stroke="#80C9F9" stroke-width="18.5185" stroke-linecap="butt" stroke-linejoin="miter" stroke-miterlimit="10" stroke-opacity="1" fill="none" fill-rule="nonzero"/><path d="M1242.17 1107.91 1096.96 1140.78" stroke="#3673B6" stroke-width="18.5185" stroke-linecap="butt" stroke-linejoin="miter" stroke-miterlimit="10" stroke-opacity="1" fill="none" fill-rule="nonzero"/><path d="M1208.22 1251.94 1096.96 1140.78" stroke="#3673B6" stroke-width="25.9259" stroke-linecap="butt" stroke-linejoin="miter" stroke-miterlimit="10" stroke-opacity="1" fill="none" fill-rule="nonzero"/><path d="M1064.7 1281.39 1096.96 1140.78" stroke="#3673B6" stroke-width="20.3704" stroke-linecap="butt" stroke-linejoin="miter" stroke-miterlimit="10" stroke-opacity="1" fill="none" fill-rule="nonzero"/><path d="M1141.57 1126.54C1141.57 1111.26 1136.04 1097.28 1126.87 1086.48 1118 1081.57 1107.8 1078.78 1096.94 1078.78 1062.7 1078.78 1034.94 1106.54 1034.94 1140.78 1034.94 1156.06 1040.48 1170.04 1049.63 1180.83 1058.5 1185.74 1068.7 1188.54 1079.56 1188.54 1113.81 1188.54 1141.57 1160.78 1141.57 1126.54Z" fill="#FFFFFF" fill-rule="nonzero" fill-opacity="1"/></g></g></g><text fill="#FFFFFF" fill-opacity="1" font-family="Arial,Arial_MSFontService,sans-serif" font-style="normal" font-variant="normal" font-weight="400" font-stretch="normal" font-size="330" text-anchor="start" direction="ltr" writing-mode="lr-tb" unicode-bidi="normal" text-decoration="none" transform="matrix(1 0 0 1 1349.52 1136)">ISiCLE</text><text fill="#FFFFFF" fill-opacity="1" font-family="Arial,Arial_MSFontService,sans-serif" font-style="normal" font-variant="normal" font-weight="400" font-stretch="normal" font-size="105" text-anchor="start" direction="ltr" writing-mode="lr-tb" unicode-bidi="normal" text-decoration="none" transform="matrix(1 0 0 1 1371.34 1232)">In Silico Chemical</text><text fill="#FFFFFF" fill-opacity="1" font-family="Arial,Arial_MSFontService,sans-serif" font-style="normal" font-variant="normal" font-weight="400" font-stretch="normal" font-size="105" text-anchor="start" direction="ltr" writing-mode="lr-tb" unicode-bidi="normal" text-decoration="none" transform="matrix(1 0 0 1 1371.34 1358)">Library Engine</text></g></g></svg>